# AST/ASF file generated using VICON BodyLanguage
# -----------------------------------------------
:version 1.10
:name VICON
:units
  mass 1.0
  length 0.45
  angle deg
:documentation
   .ast/.asf automatically generated from VICON data using
   VICON BodyBuilder and BodyLanguage model FoxedUp or BRILLIANT.MOD
:root
   order TX TY TZ RX RY RZ
   axis XYZ
   position 0 0 0  
   orientation 0 0 0 
:bonedata
  begin
     id 1 
     name lhipjoint
     direction 0.576517 -0.752066 0.319413 
     length 2.45433 
     axis 0 0 0  XYZ
  end
  begin
     id 2 
     name lfemur
     direction 0.34202 -0.939693 0  
     length 7.54459  
     axis 0 0 20  XYZ
    dof rx ry rz
    limits (-160.0 20.0)
           (-70.0 70.0)
           (-60.0 70.0)
  end
  begin
     id 3 
     name ltibia
     direction 0.34202 -0.939693 0   
     length 7.73986   
     axis 0 0 20   XYZ
    dof rx
    limits (-10.0 170.0)
  end
  begin
     id 4 
     name lfoot
     direction 0.090693 -0.249177 0.964202   
     length 2.28437   
     axis -90 7.62852e-016 20   XYZ
    dof rx rz
    limits (-45.0 90.0)
           (-70.0 20.0)
  end
  begin
     id 5 
     name ltoes
     direction 1.5356e-011 -4.21928e-011 1   
     length 1.14243   
     axis -90 7.62852e-016 20   XYZ
    dof rx
    limits (-90.0 20.0)
  end
  begin
     id 6 
     name rhipjoint
     direction -0.573937 -0.753736 0.320122   
     length 2.44889  
     axis 0 0 0  XYZ 
  end
  begin
     id 7 
     name rfemur
     direction -0.34202 -0.939693 0   
     length 7.50166   
     axis 0 0 -20   XYZ
    dof rx ry rz
    limits (-160.0 20.0)
           (-70.0 70.0)
           (-70.0 60.0)
  end
  begin
     id 8 
     name rtibia
     direction -0.34202 -0.939693 0   
     length 7.54266   
     axis 0 0 -20   XYZ
    dof rx
    limits (-10.0 170.0)
 end
 begin
     id 9 
     name rfoot
     direction -0.114017 -0.31326 0.942798   
     length 2.34212  
     axis -90 -7.62852e-016 -20   XYZ
    dof rx rz
    limits (-45.0 90.0)
           (-20.0 70.0)
  end
  begin
     id 10 
     name rtoes
     direction -1.53557e-011 -4.21867e-011 1   
     length 1.16246   
     axis -90 -7.62852e-016 -20   XYZ
    dof rx
    limits (-90.0 20.0)
  end
  begin
     id 11 
     name lowerback
     direction -0.0228371 0.999155 -0.034167   
     length 2.0537   
     axis 0 0 0   XYZ
    dof rx ry rz
    limits (-20.0 45.0)
           (-30.0 30.0)
           (-30.0 30.0)
  end
  begin
     id 12 
     name upperback
     direction 0.0198981 0.999794 0.00389455   
     length 2.05302   
     axis 0 0 0   XYZ
    dof rx ry rz
    limits (-20.0 45.0)
           (-30.0 30.0)
           (-30.0 30.0)
  end
  begin
     id 13 
     name thorax
     direction 0.0304566 0.99935 0.0192987   
     length 2.05315   
     axis 0 0 0   XYZ
    dof rx ry rz
    limits (-20.0 45.0)
           (-30.0 30.0)
           (-30.0 30.0)
  end
  begin
     id 14 
     name lowerneck
     direction -0.0196762 0.99417 0.106017   
     length 1.82056   
     axis 0 0 0   XYZ
    dof rx ry rz
    limits (-20.0 45.0)
           (-30.0 30.0)
           (-30.0 30.0)
  end
  begin
     id 15 
     name upperneck
     direction 0.00517787 0.9802 -0.197944   
     length 1.83835   
     axis 0 0 0   XYZ
    dof rx ry rz
    limits (-20.0 45.0)
           (-30.0 30.0)
           (-30.0 30.0)
  end
  begin
     id 16
     name head
     direction 0.00211419 0.996945 -0.078081  
     length 1.85629  
     axis 0 0 0   XYZ
    dof rx ry rz
    limits (-20.0 45.0)
           (-30.0 30.0)
           (-30.0 30.0)
  end
  begin
     id 17 
     name lclavicle
     direction 0.930001 0.365811 -0.0357824  
     length 3.81961  
     axis 0 0 0   XYZ
    dof ry rz
    limits (-20.0 10.0)
           (0.0 20.0)
  end
  begin
     id 18 
     name lhumerus
     direction 1 -4.48968e-011 -3.06644e-027   
     length 5.14507   
     axis 180 -30 -90   XYZ
    dof rx ry rz
    limits (-60.0 90.0)
           (-90.0 90.0)
           (-90.0 90.0)
  end
  begin
     id 19
     name lradius
     direction 1 -4.48965e-011 9.06925e-028   
     length 3.50646   
     axis 180 -30 -90   XYZ
    dof rx
    limits (-10.0 170.0)
  end
  begin
     id 20
     name lwrist
     direction 1 -4.48957e-011 1.03922e-027   
     length 1.75323   
     axis -2.56395e-016 90 90   XYZ
    dof ry
    limits (-180.0 0.0)
 end
  begin
     id 21 
     name lhand
     direction 1 -4.48967e-011 2.08017e-027   
     length 0.629969   
     axis -1.32723e-015 90 90   XYZ
    dof rx rz
    limits (-90.0 90.0)
           (-45.0 45.0)
  end
  begin
     id 22 
     name lfingers
     direction 1 -4.49089e-011 4.20095e-027   
     length 0.507897   
     axis -2.6545e-015 90 90   XYZ
    dof rx
    limits (0.0 90.0)
  end
  begin
     id 23
     name lthumb
     direction 0.707107 -6.35001e-011 0.707107   
     length 0.729241   
     axis -90 45 5.05613e-014   XYZ
    dof rx rz
    limits (-45.0 45.0)
           (-45.0 45.0)
  end
  begin
     id 24 
     name rclavicle
     direction -0.881882 0.464123 -0.0829113   
     length 3.47515  
     axis 0 0 0   XYZ 
    dof ry rz
    limits (-10.0 20.0)
           (-20.0 0.0)
  end
  begin
     id 25 
     name rhumerus
     direction -1 -4.48961e-011 -1.55672e-027  
     length 5.232   
     axis 180 30 90   XYZ
    dof rx ry rz
    limits (-90.0 60.0)
           (-90.0 90.0)
           (-90.0 90.0)
  end
  begin
     id 26 
     name rradius
     direction -1 -4.48963e-011 6.18178e-029   
     length 3.65641   
     axis 180 30 90   XYZ
    dof rx
    limits (-10.0 170.0)
  end
  begin
     id 27 
     name rwrist
     direction -1 -4.48982e-011 1.04136e-027   
     length 1.8282   
     axis -2.56395e-016 -90 -90   XYZ
    dof ry
    limits (-180.0 0.0)
  end
  begin
     id 28
     name rhand
     direction -1 -4.48929e-011 2.07378e-027   
     length 0.656807   
     axis -1.32723e-015 -90 -90   XYZ
    dof rx rz
    limits (-90.0 90.0)
           (-45.0 45.0)
  end
  begin
     id 29
     name rfingers
     direction -1 -4.489e-011 4.13816e-027   
     length 0.529535   
     axis -2.6545e-015 -90 -90   XYZ
    dof rx
    limits (0.0 90.0)
  end
  begin
     id 30
     name rthumb
     direction -0.707107 -6.34843e-011 0.707107   
     length 0.760309   
     axis -90 -45 -5.05613e-014   XYZ
    dof rx rz
    limits (-45.0 45.0)
           (-45.0 45.0)
  end
:hierarchy
  begin
    root lhipjoint rhipjoint lowerback
    lhipjoint lfemur
    lfemur ltibia
    ltibia lfoot
    lfoot ltoes
    rhipjoint rfemur
    rfemur rtibia
    rtibia rfoot
    rfoot rtoes
    lowerback upperback
    upperback thorax
    thorax lowerneck lclavicle rclavicle
    lowerneck upperneck
    upperneck head
    lclavicle lhumerus
    lhumerus lradius
    lradius lwrist
    lwrist lhand lthumb
    lhand lfingers
    rclavicle rhumerus
    rhumerus rradius
    rradius rwrist
    rwrist rhand rthumb
    rhand rfingers
  end

#!OML:ASF H:\ManfredETheater\Project 1\Capture day 1\Session 1\subject.ASF
:FULLY-SPECIFIED
:DEGREES
31
root -2.30175 15.4483 42.2139 -160.419 0.288803 -178.228
lowerback 13.8967 2.73799 4.39287
upperback 1.62033 4.79247 2.467
thorax -5.92989 2.40857 -0.774521
lowerneck -14.147 -3.73993 -4.33304
upperneck 6.02788 -4.2021 -1.33352
head 4.14646 -2.30522 -0.0431447
rclavicle -7.79236e-014 -8.90555e-014
rhumerus -35.2669 17.3586 -93.829
rradius 91.0369
rwrist -2.47127
rhand -22 -0.613211
rfingers 7.12502
rthumb 4.40875 -30.5473
lclavicle -7.79236e-014 -8.90555e-014
lhumerus -65.4569 -9.02016 94.7938
lradius 100.532
lwrist 9.66315
lhand -25.3008 -11.8068
lfingers 7.12502
lthumb 1.22106 18.1694
rfemur 2.60807 -2.83712 25.0785
rtibia 27.6927
rfoot -27.617 -5.64736
rtoes -27.7425
lfemur -73.4171 6.40398 -24.6962
ltibia 58.648
lfoot -13.7065 -12.3299
ltoes -11.7068
32
root -2.29577 15.4387 41.8916 -160.396 0.366416 -178.339
lowerback 13.8295 2.88749 4.3666
upperback 1.50695 4.94422 2.21892
thorax -5.9857 2.46683 -1.04588
lowerneck -14.1161 -3.86326 -4.4318
upperneck 6.04538 -4.36369 -1.12567
head 4.15563 -2.37259 0.024286
rclavicle -2.8625e-014 -1.59028e-014
rhumerus -35.6106 17.6438 -94.2778
rradius 93.9456
rwrist -2.55924
rhand -21.9123 -0.0456416
rfingers 7.12502
rthumb 4.49342 -29.978
lclavicle -2.8625e-014 -1.59028e-014
lhumerus -67.8698 -9.11031 94.206
lradius 102.301
lwrist 10.101
lhand -25.1699 -12.096
lfingers 7.12502
lthumb 1.3475 17.8795
rfemur 4.99365 -2.63836 24.8196
rtibia 24.8547
rfoot -25.4233 -5.30499
rtoes -28.6826
lfemur -73.5672 6.22769 -24.9006
ltibia 57.5991
lfoot -13.0265 -11.9376
ltoes -11.5197
33
root -2.29045 15.4341 41.5607 -160.334 0.462648 -178.416
lowerback 13.7198 3.04598 4.3372
upperback 1.38347 5.10571 1.97583
thorax -6.02774 2.53026 -1.30922
lowerneck -14.1097 -3.98725 -4.53029
upperneck 6.08731 -4.52529 -0.904005
head 4.1771 -2.4393 0.0950598
rclavicle -5.56597e-014 1.27222e-014
rhumerus -35.9515 17.9134 -94.6962
rradius 96.6542
rwrist -2.57856
rhand -21.9771 0.535474
rfingers 7.12502
rthumb 4.43085 -29.3982
lclavicle -5.56597e-014 1.27222e-014
lhumerus -70.1464 -9.20069 93.6499
lradius 103.83
lwrist 10.4686
lhand -25.0614 -12.3721
lfingers 7.12502
lthumb 1.45227 17.6027
rfemur 7.32444 -2.3907 24.5773
rtibia 21.9819
rfoot -22.7455 -4.94804
rtoes -29.868
lfemur -73.6717 6.07939 -25.0431
ltibia 56.8594
lfoot -12.4738 -11.5156
ltoes -11.4104
34
root -2.28547 15.4343 41.2219 -160.206 0.593797 -178.443
lowerback 13.5381 3.21769 4.29837
upperback 1.24925 5.28036 1.74362
thorax -6.04116 2.60124 -1.55302
lowerneck -14.1418 -4.10988 -4.62724
upperneck 6.15655 -4.68388 -0.668119
head 4.21396 -2.50383 0.16897
rclavicle 5.32743e-014 -4.37326e-014
rhumerus -36.2767 18.1816 -95.0809
rradius 99.1116
rwrist -2.48248
rhand -22.1424 1.07431
rfingers 7.12502
rthumb 4.27128 -28.8626
lclavicle 5.32743e-014 -4.37326e-014
lhumerus -72.2395 -9.26276 93.1334
lradius 105.088
lwrist 10.7517
lhand -24.9892 -12.629
lfingers 7.12502
lthumb 1.52201 17.3453
rfemur 9.48927 -2.06494 24.3644
rtibia 19.2159
rfoot -19.5871 -4.60129
rtoes -31.3604
lfemur -73.7756 5.98729 -25.13
ltibia 56.4858
lfoot -12.0779 -11.1334
ltoes -11.3849
35
root -2.2802 15.4385 40.8758 -160 0.753828 -178.415
lowerback 13.2812 3.39664 4.23514
upperback 1.09519 5.45906 1.53165
thorax -6.03659 2.67541 -1.7571
lowerneck -14.2053 -4.22159 -4.71717
upperneck 6.25576 -4.82755 -0.42474
head 4.26545 -2.56046 0.244116
rclavicle 3.37934e-014 -7.07673e-014
rhumerus -36.5929 18.4584 -95.4362
rradius 101.275
rwrist -2.24515
rhand -22.3954 1.56472
rfingers 7.12502
rthumb 4.027 -28.377
lclavicle 3.37934e-014 -7.07673e-014
lhumerus -74.1294 -9.26024 92.6702
lradius 106.062
lwrist 10.9435
lhand -24.9405 -12.84
lfingers 7.12502
lthumb 1.569 17.134
rfemur 11.4419 -1.65792 24.1862
rtibia 16.5917
rfoot -15.9219 -4.24773
rtoes -33.0978
lfemur -73.8784 5.95661 -25.1671
ltibia 56.4813
lfoot -11.836 -10.8527
ltoes -11.3428
36
root -2.27478 15.4367 40.5247 -159.733 0.918791 -178.336
lowerback 12.9579 3.5666 4.15613
upperback 0.93193 5.62332 1.34119
thorax -6.00814 2.7444 -1.92149
lowerneck -14.3151 -4.31946 -4.79549
upperneck 6.38603 -4.95288 -0.171625
head 4.33408 -2.60714 0.320432
rclavicle -6.24184e-014 0
rhumerus -36.8945 18.7352 -95.7648
rradius 103.13
rwrist -1.87785
rhand -22.6857 1.96976
rfingers 7.12502
rthumb 3.74665 -27.9771
lclavicle -6.24184e-014 0
lhumerus -75.7682 -9.1705 92.2556
lradius 106.736
lwrist 11.0536
lhand -24.8763 -13.0223
lfingers 7.12502
lthumb 1.63104 16.9512
rfemur 13.1452 -1.19291 24.0446
rtibia 14.2041
rfoot -11.764 -3.87102
rtoes -35.0091
lfemur -73.9997 5.96746 -25.1617
ltibia 56.8663
lfoot -11.7272 -10.7288
ltoes -10.8611
37
root -2.26825 15.4459 40.1668 -159.403 1.07937 -178.211
lowerback 12.579 3.71907 4.05342
upperback 0.749564 5.76186 1.17384
thorax -5.9743 2.80211 -2.03944
lowerneck -14.4558 -4.39288 -4.85028
upperneck 6.54477 -5.04798 0.079395
head 4.41569 -2.63826 0.393801
rclavicle -4.77083e-014 -3.4191e-014
rhumerus -37.2133 19.0112 -96.0807
rradius 104.662
rwrist -1.37536
rhand -22.9693 2.2622
rfingers 7.12502
rthumb 3.47278 -27.6893
lclavicle -4.77083e-014 -3.4191e-014
lhumerus -77.1389 -8.97582 91.8938
lradius 107.116
lwrist 11.0823
lhand -24.7683 -13.1414
lfingers 7.12502
lthumb 1.73531 16.8313
rfemur 14.4931 -0.660889 23.9433
rtibia 12.1542
rfoot -7.09117 -3.4636
rtoes -36.9536
lfemur -74.0207 6.02313 -25.117
ltibia 57.5482
lfoot -11.8566 -10.7704
ltoes -9.75035
38
root -2.26092 15.4555 39.804 -159.064 1.15738 -178.075
lowerback 12.2061 3.81707 3.94757
upperback 0.559121 5.83274 1.02568
thorax -5.95798 2.82736 -2.12455
lowerneck -14.637 -4.44213 -4.88214
upperneck 6.7415 -5.11344 0.335868
head 4.51486 -2.6535 0.466409
rclavicle 3.18055e-014 -2.06736e-014
rhumerus -37.5553 19.2712 -96.3911
rradius 105.864
rwrist -0.783105
rhand -23.1976 2.43144
rfingers 7.12502
rthumb 3.25228 -27.5235
lclavicle 3.18055e-014 -2.06736e-014
lhumerus -78.2168 -8.68302 91.5801
lradius 107.223
lwrist 11.0515
lhand -24.5824 -13.1709
lfingers 7.12502
lthumb 1.9149 16.8002
rfemur 15.4329 -0.124266 23.8843
rtibia 10.6661
rfoot -2.05721 -3.01757
rtoes -38.6722
lfemur -73.9082 6.04619 -25.044
ltibia 58.4837
lfoot -12.2486 -10.9234
ltoes -8.06576
